<?xml version="1.0" encoding="iso-8859-1"?>
<!-- Generator: Adobe Illustrator 19.0.0, SVG Export Plug-In . SVG Version: 6.00 Build 0)  -->
<svg version="1.1" id="Layer_1" xmlns="http://www.w3.org/2000/svg" xmlns:xlink="http://www.w3.org/1999/xlink" x="0px" y="0px"
	 viewBox="0 0 512.205 512.205" style="enable-background:new 0 0 512.205 512.205;" xml:space="preserve">
<g>
	<g>
		<g>
			<path d="M153.702,128c0-4.713-3.821-8.533-8.533-8.533s-8.533,3.82-8.533,8.533v8.533c0,4.713,3.82,8.533,8.533,8.533
				s8.533-3.82,8.533-8.533V128z"/>
			<path d="M153.702,170.667c0-4.713-3.821-8.533-8.533-8.533s-8.533,3.82-8.533,8.533v8.533c0,4.713,3.82,8.533,8.533,8.533
				s8.533-3.82,8.533-8.533V170.667z"/>
			<path d="M145.169,204.8c-4.713,0-8.533,3.821-8.533,8.533v8.533c0,4.713,3.82,8.533,8.533,8.533s8.533-3.82,8.533-8.533v-8.533
				C153.702,208.621,149.882,204.8,145.169,204.8z"/>
			<path d="M187.836,128c0-4.713-3.82-8.533-8.533-8.533s-8.533,3.82-8.533,8.533v8.533c0,4.713,3.82,8.533,8.533,8.533
				s8.533-3.82,8.533-8.533V128z"/>
			<path d="M187.836,170.667c0-4.713-3.82-8.533-8.533-8.533s-8.533,3.82-8.533,8.533v8.533c0,4.713,3.82,8.533,8.533,8.533
				s8.533-3.82,8.533-8.533V170.667z"/>
			<path d="M179.302,204.8c-4.713,0-8.533,3.821-8.533,8.533v8.533c0,4.713,3.82,8.533,8.533,8.533s8.533-3.82,8.533-8.533v-8.533
				C187.836,208.621,184.015,204.8,179.302,204.8z"/>
			<path d="M119.569,128c0-4.713-3.82-8.533-8.533-8.533s-8.533,3.82-8.533,8.533v8.533c0,4.713,3.82,8.533,8.533,8.533
				s8.533-3.82,8.533-8.533V128z"/>
			<path d="M119.569,170.667c0-4.713-3.82-8.533-8.533-8.533s-8.533,3.82-8.533,8.533v8.533c0,4.713,3.82,8.533,8.533,8.533
				s8.533-3.82,8.533-8.533V170.667z"/>
			<path d="M111.036,204.8c-4.713,0-8.533,3.821-8.533,8.533v8.533c0,4.713,3.82,8.533,8.533,8.533s8.533-3.82,8.533-8.533v-8.533
				C119.569,208.621,115.748,204.8,111.036,204.8z"/>
			<path d="M264.636,285.867v-25.6c0-2.356-1.91-4.267-4.267-4.267h-192V68.267c0-28.277,22.923-51.2,51.2-51.2h17.067v34.987
				c-19.868,4.056-34.137,21.535-34.133,41.813c0,4.713,3.82,8.533,8.533,8.533h68.267c4.713,0,8.533-3.82,8.533-8.533
				c0.004-20.278-14.265-37.758-34.133-41.813V8.533c0-4.713-3.821-8.533-8.533-8.533h-25.6C81.866,0,51.302,30.564,51.302,68.267
				V256h-39.68c-6.362,0-11.52,5.158-11.52,11.52v11.093c0,6.362,5.158,11.52,11.52,11.52h248.747
				C262.725,290.133,264.636,288.223,264.636,285.867z"/>
			<path d="M500.582,256h-77.995c-2.356-0.047-4.304,1.825-4.351,4.181c-0.001,0.029-0.001,0.057-0.001,0.086v25.6
				c0,2.356,1.91,4.267,4.267,4.267h78.08c6.362,0,11.52-5.158,11.52-11.52V267.52C512.102,261.158,506.945,256,500.582,256z"/>
			<path d="M481.809,307.2h-59.307c-2.356,0-4.267,1.91-4.267,4.267v81.067c0,4.713-3.82,8.533-8.533,8.533
				s-8.533-3.821-8.533-8.533v-12.8c0-2.356-1.91-4.267-4.267-4.267h-8.533c-2.356,0-4.267,1.91-4.267,4.267v12.8
				c0,4.713-3.82,8.533-8.533,8.533s-8.533-3.821-8.533-8.533v-12.8c0-2.356-1.91-4.267-4.267-4.267h-8.533
				c-2.356,0-4.267,1.91-4.267,4.267v12.8c0,4.713-3.82,8.533-8.533,8.533s-8.533-3.821-8.533-8.533v-12.8
				c0-2.356-1.91-4.267-4.267-4.267h-8.533c-2.356,0-4.267,1.91-4.267,4.267v12.8c0,4.713-3.82,8.533-8.533,8.533
				s-8.533-3.821-8.533-8.533v-12.8c0-2.356-1.91-4.267-4.267-4.267h-8.533c-2.356,0-4.267,1.91-4.267,4.267v12.8
				c0,4.713-3.821,8.533-8.533,8.533c-4.713,0-8.533-3.821-8.533-8.533v-81.067c0-2.356-1.91-4.267-4.267-4.267H30.396
				c-2.404-0.002-4.354,1.945-4.355,4.349c0,0.058,0.001,0.116,0.003,0.174C29.372,372.48,55.74,435.371,94.31,454.741
				c-12.885,13.761-12.174,35.361,1.586,48.246c13.761,12.885,35.361,12.174,48.246-1.586c10.335-11.037,12.176-27.559,4.525-40.601
				h214.613c-4.994,8.335-6.086,18.439-2.987,27.648c6.012,17.867,25.37,27.477,43.237,21.464
				c17.867-6.012,27.477-25.37,21.464-43.237c-1.547-4.596-4.055-8.81-7.357-12.361c38.827-19.371,65.195-82.261,68.267-143.019
				C485.779,309.088,484.017,307.326,481.809,307.2z"/>
			<path d="M285.969,358.4h110.933c2.356,0,4.267-1.91,4.267-4.267v-93.867c0.047-2.262-1.748-4.133-4.01-4.18
				c-0.029-0.001-0.057-0.001-0.086-0.001H286.14c-2.337,0.045-4.221,1.929-4.267,4.267v93.867
				C281.916,356.477,283.712,358.31,285.969,358.4z"/>
		</g>
	</g>
</g>
<g>
</g>
<g>
</g>
<g>
</g>
<g>
</g>
<g>
</g>
<g>
</g>
<g>
</g>
<g>
</g>
<g>
</g>
<g>
</g>
<g>
</g>
<g>
</g>
<g>
</g>
<g>
</g>
<g>
</g>
</svg>
