<?xml version="1.0" encoding="iso-8859-1"?>
<!-- Generator: Adobe Illustrator 19.0.0, SVG Export Plug-In . SVG Version: 6.00 Build 0)  -->
<svg version="1.1" id="Layer_1" xmlns="http://www.w3.org/2000/svg" xmlns:xlink="http://www.w3.org/1999/xlink" x="0px" y="0px"
	 viewBox="0 0 512.205 512.205" style="enable-background:new 0 0 512.205 512.205;" xml:space="preserve">
<g fill="#2173FE">
	<g>
		<g>
			<path d="M486.502,256H68.369V68.267c0-28.277,22.923-51.2,51.2-51.2h17.067v34.987c-19.868,4.056-34.137,21.535-34.133,41.813
				c0,4.713,3.82,8.533,8.533,8.533h68.267c4.713,0,8.533-3.82,8.533-8.533c0.004-20.278-14.265-37.758-34.133-41.813V8.533
				c0-4.713-3.821-8.533-8.533-8.533h-25.6C81.866,0,51.302,30.564,51.302,68.267V256h-25.6c-14.138,0-25.6,11.462-25.6,25.6
				c0,14.138,11.461,25.6,25.6,25.6c2.304,62.123,28.928,128,68.779,147.541c-12.885,13.761-12.174,35.361,1.586,48.246
				c13.761,12.885,35.361,12.174,48.246-1.586c10.335-11.037,12.176-27.559,4.525-40.601h214.443
				c-3.068,5.169-4.716,11.056-4.779,17.067c-0.112,18.851,15.079,34.223,33.93,34.335c18.851,0.112,34.223-15.079,34.335-33.93
				c0.052-8.733-3.246-17.154-9.215-23.53c39.851-19.541,66.475-85.419,68.949-147.541c14.138,0,25.6-11.462,25.6-25.6
				C512.102,267.462,500.641,256,486.502,256z M153.664,69.679c7.321,2.575,13.079,8.333,15.654,15.654H121.02
				C125.711,71.996,140.327,64.987,153.664,69.679z M281.702,273.067h119.467v93.867H281.702V273.067z M17.169,281.6
				c0-4.713,3.82-8.533,8.533-8.533h238.933v17.067H25.702C20.989,290.133,17.169,286.313,17.169,281.6z M119.569,494.933
				c-9.426,0-17.067-7.641-17.067-17.067s7.641-17.067,17.067-17.067s17.067,7.641,17.067,17.067S128.995,494.933,119.569,494.933z
				 M392.636,494.933c-9.426,0-17.067-7.641-17.067-17.067s7.641-17.067,17.067-17.067c9.426,0,17.067,7.641,17.067,17.067
				S402.061,494.933,392.636,494.933z M392.636,443.733H119.569c-37.973,0-73.813-65.195-76.8-136.533h221.867v85.333
				c0,4.713,3.821,8.533,8.533,8.533c4.713,0,8.533-3.821,8.533-8.533V384h17.067v8.533c0,4.713,3.82,8.533,8.533,8.533
				s8.533-3.821,8.533-8.533V384h17.067v8.533c0,4.713,3.821,8.533,8.533,8.533s8.533-3.821,8.533-8.533V384h17.067v8.533
				c0,4.713,3.82,8.533,8.533,8.533s8.533-3.821,8.533-8.533V384h17.067v8.533c0,4.713,3.82,8.533,8.533,8.533
				s8.533-3.821,8.533-8.533V307.2h51.2C466.449,378.539,430.609,443.733,392.636,443.733z M486.502,290.133h-68.267v-17.067h68.267
				c4.713,0,8.533,3.821,8.533,8.533S491.215,290.133,486.502,290.133z"/>
			<path d="M153.702,128c0-4.713-3.821-8.533-8.533-8.533s-8.533,3.82-8.533,8.533v8.533c0,4.713,3.82,8.533,8.533,8.533
				s8.533-3.82,8.533-8.533V128z"/>
			<path d="M153.702,170.667c0-4.713-3.821-8.533-8.533-8.533s-8.533,3.82-8.533,8.533v8.533c0,4.713,3.82,8.533,8.533,8.533
				s8.533-3.82,8.533-8.533V170.667z"/>
			<path d="M145.169,204.8c-4.713,0-8.533,3.821-8.533,8.533v8.533c0,4.713,3.82,8.533,8.533,8.533s8.533-3.82,8.533-8.533v-8.533
				C153.702,208.621,149.882,204.8,145.169,204.8z"/>
			<path d="M187.836,128c0-4.713-3.82-8.533-8.533-8.533s-8.533,3.82-8.533,8.533v8.533c0,4.713,3.82,8.533,8.533,8.533
				s8.533-3.82,8.533-8.533V128z"/>
			<path d="M187.836,170.667c0-4.713-3.82-8.533-8.533-8.533s-8.533,3.82-8.533,8.533v8.533c0,4.713,3.82,8.533,8.533,8.533
				s8.533-3.82,8.533-8.533V170.667z"/>
			<path d="M179.302,204.8c-4.713,0-8.533,3.821-8.533,8.533v8.533c0,4.713,3.82,8.533,8.533,8.533s8.533-3.82,8.533-8.533v-8.533
				C187.836,208.621,184.015,204.8,179.302,204.8z"/>
			<path d="M119.569,128c0-4.713-3.82-8.533-8.533-8.533s-8.533,3.82-8.533,8.533v8.533c0,4.713,3.82,8.533,8.533,8.533
				s8.533-3.82,8.533-8.533V128z"/>
			<path d="M119.569,170.667c0-4.713-3.82-8.533-8.533-8.533s-8.533,3.82-8.533,8.533v8.533c0,4.713,3.82,8.533,8.533,8.533
				s8.533-3.82,8.533-8.533V170.667z"/>
			<path d="M111.036,204.8c-4.713,0-8.533,3.821-8.533,8.533v8.533c0,4.713,3.82,8.533,8.533,8.533s8.533-3.82,8.533-8.533v-8.533
				C119.569,208.621,115.748,204.8,111.036,204.8z"/>
		</g>
	</g>
</g>
<g>
</g>
<g>
</g>
<g>
</g>
<g>
</g>
<g>
</g>
<g>
</g>
<g>
</g>
<g>
</g>
<g>
</g>
<g>
</g>
<g>
</g>
<g>
</g>
<g>
</g>
<g>
</g>
<g>
</g>
</svg>
